<svg width="606" height="856" viewBox="0 0 606 856" fill="none" xmlns="http://www.w3.org/2000/svg">
<g clip-path="url(#clip0_251_2)">
<path d="M-85.5 344.5L-111.5 392C-91.3 409.82 -16.4 397.287 24 398C64.4 398.713 45 483 188 445C275.185 421.832 303 408.5 370.5 435.5C432 481 584.7 371.5 615.5 344.5C651.7 295 558.8 374.976 579 358.011L563 352.309V51.5H542.8C522.6 51.5 482.2 51.5 441.8 51.5C401.4 51.5 361 51.5 320.6 51.5C280.2 51.5 239.8 51.5 199.4 51.5C159 51.5 118.6 51.5 78.2 51.5C37.8 51.5 -2.60001 51.5 -22.8 51.5H-43L-85.5 344.5Z" fill="#FFB7B0"/>
<path d="M-31.5 342L-57.5 389.5C-37.3 407.32 37.6 394.787 78 395.5C118.4 396.213 197 469.968 242 442.5C319 395.5 439.6 407.246 480 422.5C520.4 437.612 586.2 390.5 617 363.5C653.2 314 612.8 372.476 633 355.511L617 349.809V49H596.8C576.6 49 536.2 49 495.8 49C455.4 49 415 49 374.6 49C334.2 49 293.8 49 253.4 49C213 49 172.6 49 132.2 49C91.8 49 51.4 49 31.2 49H11L-31.5 342Z" fill="#FF8276"/>
<path d="M0 306.511L-11 334.5C9.2 352.32 80.8 377.793 121.2 378.506C161.6 379.218 184.6 366.638 225 364.5C265.4 362.362 284.1 375.246 324.5 390.5C364.9 405.612 444.4 401.601 484.8 384.921C525.2 368.241 601.8 323.476 622 306.511L606 300.809V0H585.8C565.6 0 525.2 0 484.8 0C444.4 0 404 0 363.6 0C323.2 0 282.8 0 242.4 0C202 0 161.6 0 121.2 0C80.8 0 40.4 0 20.2 0H0V306.511Z" fill="#FF6F61"/>
<path d="M0 262.316L20.2 255.901C40.4 249.486 80.8 236.655 121.2 250.626C161.6 264.74 202 305.513 242.4 325.472C282.8 345.431 323.2 344.576 363.6 324.759C404 305.086 444.4 266.593 484.8 264.455C525.2 262.317 565.6 296.532 585.8 313.639L606 330.747V0H585.8C565.6 0 525.2 0 484.8 0C444.4 0 404 0 363.6 0C323.2 0 282.8 0 242.4 0C202 0 161.6 0 121.2 0C80.8 0 40.4 0 20.2 0H0V262.316Z" fill="#FF625B"/>
<path d="M0 179.63L20.2 187.898C40.4 196.31 80.8 212.847 121.2 225.535C161.6 238.081 202 246.635 242.4 248.345C282.8 249.913 323.2 244.781 363.6 231.665C404 218.55 444.4 197.735 484.8 187.186C525.2 176.779 565.6 176.779 585.8 176.779H606V0H585.8C565.6 0 525.2 0 484.8 0C444.4 0 404 0 363.6 0C323.2 0 282.8 0 242.4 0C202 0 161.6 0 121.2 0C80.8 0 40.4 0 20.2 0H0V179.63Z" fill="#FF5455"/>
<path d="M0 169.65L20.2 171.361C40.4 172.929 80.8 176.351 121.2 172.929C161.6 169.65 202 159.671 242.4 152.97C282.8 146.413 323.2 142.991 363.6 156.107C404 169.223 444.4 198.591 484.8 210.566C525.2 222.399 565.6 216.696 585.8 213.845L606 210.994V0H585.8C565.6 0 525.2 0 484.8 0C444.4 0 404 0 363.6 0C323.2 0 282.8 0 242.4 0C202 0 161.6 0 121.2 0C80.8 0 40.4 0 20.2 0H0V169.65Z" fill="#FF434F"/>
<path d="M0 88.3893L20.2 96.2302C40.4 104.071 80.8 119.753 121.2 129.733C161.6 139.712 202 143.989 242.4 134.437C282.8 125.028 323.2 101.648 363.6 100.079C404 98.3687 444.4 118.328 484.8 130.16C525.2 142.136 565.6 145.842 585.8 147.838L606 149.691V0H585.8C565.6 0 525.2 0 484.8 0C444.4 0 404 0 363.6 0C323.2 0 282.8 0 242.4 0C202 0 161.6 0 121.2 0C80.8 0 40.4 0 20.2 0H0V88.3893Z" fill="#FF2E4A"/>
<path d="M0 99.7943L20.2 91.2405C40.4 82.6867 80.8 65.5791 121.2 66.2919C161.6 67.0048 202 85.538 242.4 84.8252C282.8 84.1124 323.2 64.1535 363.6 55.8848C404 47.4736 444.4 50.8951 484.8 56.3125C525.2 61.7299 565.6 69.4283 585.8 73.135L606 76.9842V0H585.8C565.6 0 525.2 0 484.8 0C444.4 0 404 0 363.6 0C323.2 0 282.8 0 242.4 0C202 0 161.6 0 121.2 0C80.8 0 40.4 0 20.2 0H0V99.7943Z" fill="#FF0046"/>
</g>
<defs>
<clipPath id="clip0_251_2">
<rect width="606" height="855.38" fill="white"/>
</clipPath>
</defs>
</svg>
