<svg width="606" height="1079" viewBox="0 0 606 1079" fill="none" xmlns="http://www.w3.org/2000/svg">
<g clip-path="url(#clip0_425_4)">
<path d="M0 163.648L9.22467 174.438C18.382 185.228 36.8313 206.808 55.2133 205.01C73.5953 203.212 92.0447 178.035 110.292 161.85C128.607 145.665 146.787 138.472 165.101 154.657C183.349 170.842 201.798 210.405 220.18 217.598C238.562 224.792 257.011 199.615 275.393 206.808C293.775 214.002 312.225 253.565 330.607 260.758C348.989 267.952 367.438 242.775 385.82 226.59C404.202 210.405 422.651 203.212 440.899 208.607C459.213 214.002 477.393 231.985 495.708 228.388C513.955 224.792 532.405 199.615 550.787 174.438C569.169 149.262 587.618 124.085 596.775 111.497L606 98.9083V0H596.775C587.618 0 569.169 0 550.787 0C532.405 0 513.955 0 495.708 0C477.393 0 459.213 0 440.899 0C422.651 0 404.202 0 385.82 0C367.438 0 348.989 0 330.607 0C312.225 0 293.775 0 275.393 0C257.011 0 238.562 0 220.18 0C201.798 0 183.349 0 165.101 0C146.787 0 128.607 0 110.292 0C92.0447 0 73.5953 0 55.2133 0C36.8313 0 18.382 0 9.22467 0H0V163.648Z" fill="#210C4F"/>
<path d="M0 573.668L9.22467 593.45C18.382 613.232 36.8313 652.795 55.2133 633.013C73.5953 613.232 92.0447 534.105 110.292 507.13C128.607 480.155 146.787 505.332 165.101 514.323C183.349 523.315 201.798 516.122 220.18 494.542C238.562 472.962 257.011 436.995 275.393 449.583C293.775 462.172 312.225 523.315 330.607 532.307C348.989 541.298 367.438 498.138 385.82 478.357C404.202 458.575 422.651 462.172 440.899 465.768C459.213 469.365 477.393 472.962 495.708 451.382C513.955 429.802 532.405 383.045 550.787 390.238C569.169 397.432 587.618 458.575 596.775 489.147L606 519.718V95.3117L596.775 107.9C587.618 120.488 569.169 145.665 550.787 170.842C532.405 196.018 513.955 221.195 495.708 224.792C477.393 228.388 459.213 210.405 440.899 205.01C422.651 199.615 404.202 206.808 385.82 222.993C367.438 239.178 348.989 264.355 330.607 257.162C312.225 249.968 293.775 210.405 275.393 203.212C257.011 196.018 238.562 221.195 220.18 214.002C201.798 206.808 183.349 167.245 165.101 151.06C146.787 134.875 128.607 142.068 110.292 158.253C92.0447 174.438 73.5953 199.615 55.2133 201.413C36.8313 203.212 18.382 181.632 9.22467 170.842L0 160.052V573.668Z" fill="#5E1070"/>
<path d="M0 692.358L9.22467 712.14C18.382 731.922 36.8313 771.485 55.2133 762.493C73.5953 753.502 92.0447 695.955 110.292 661.787C128.607 627.618 146.787 616.828 165.101 606.038C183.349 595.248 201.798 584.458 220.18 570.072C238.562 555.685 257.011 537.702 275.393 559.282C293.775 580.862 312.225 642.005 330.607 652.795C348.989 663.585 367.438 624.022 385.82 609.635C404.202 595.248 422.651 606.038 440.899 611.433C459.213 616.828 477.393 616.828 495.708 591.652C513.955 566.475 532.405 516.122 550.787 514.323C569.169 512.525 587.618 559.282 596.775 582.66L606 606.038V516.122L596.775 485.55C587.618 454.978 569.169 393.835 550.787 386.642C532.405 379.448 513.955 426.205 495.708 447.785C477.393 469.365 459.213 465.768 440.899 462.172C422.651 458.575 404.202 454.978 385.82 474.76C367.438 494.542 348.989 537.702 330.607 528.71C312.225 519.718 293.775 458.575 275.393 445.987C257.011 433.398 238.562 469.365 220.18 490.945C201.798 512.525 183.349 519.718 165.101 510.727C146.787 501.735 128.607 476.558 110.292 503.533C92.0447 530.508 73.5953 609.635 55.2133 629.417C36.8313 649.198 18.382 609.635 9.22467 589.853L0 570.072V692.358Z" fill="#93147A"/>
<path d="M0 832.628L9.22467 841.62C18.382 850.612 36.8313 868.595 55.2133 854.208C73.5953 839.822 92.0447 793.065 110.292 784.073C128.607 775.082 146.787 803.855 165.101 793.065C183.349 782.275 201.798 731.922 220.18 710.342C238.562 688.762 257.011 695.955 275.393 719.333C293.775 742.712 312.225 782.275 330.607 798.46C348.989 814.645 367.438 807.452 385.82 805.653C404.202 803.855 422.651 807.452 440.899 803.855C459.213 800.258 477.393 789.468 495.708 766.09C513.955 742.712 532.405 706.745 550.787 715.737C569.169 724.728 587.618 778.678 596.775 805.653L606 832.628V602.442L596.775 579.063C587.618 555.685 569.169 508.928 550.787 510.727C532.405 512.525 513.955 562.878 495.708 588.055C477.393 613.232 459.213 613.232 440.899 607.837C422.651 602.442 404.202 591.652 385.82 606.038C367.438 620.425 348.989 659.988 330.607 649.198C312.225 638.408 293.775 577.265 275.393 555.685C257.011 534.105 238.562 552.088 220.18 566.475C201.798 580.862 183.349 591.652 165.101 602.442C146.787 613.232 128.607 624.022 110.292 658.19C92.0447 692.358 73.5953 749.905 55.2133 758.897C36.8313 767.888 18.382 728.325 9.22467 708.543L0 688.762V832.628Z" fill="#B62176"/>
<path d="M0 1080.8H9.22467C18.382 1080.8 36.8313 1080.8 55.2133 1080.8C73.5953 1080.8 92.0447 1080.8 110.292 1080.8C128.607 1080.8 146.787 1080.8 165.101 1080.8C183.349 1080.8 201.798 1080.8 220.18 1080.8C238.562 1080.8 257.011 1080.8 275.393 1080.8C293.775 1080.8 312.225 1080.8 330.607 1080.8C348.989 1080.8 367.438 1080.8 385.82 1080.8C404.202 1080.8 422.651 1080.8 440.899 1080.8C459.213 1080.8 477.393 1080.8 495.708 1080.8C513.955 1080.8 532.405 1080.8 550.787 1080.8C569.169 1080.8 587.618 1080.8 596.775 1080.8H606V829.032L596.775 802.057C587.618 775.082 569.169 721.132 550.787 712.14C532.405 703.148 513.955 739.115 495.708 762.493C477.393 785.872 459.213 796.662 440.899 800.258C422.651 803.855 404.202 800.258 385.82 802.057C367.438 803.855 348.989 811.048 330.607 794.863C312.225 778.678 293.775 739.115 275.393 715.737C257.011 692.358 238.562 685.165 220.18 706.745C201.798 728.325 183.349 778.678 165.101 789.468C146.787 800.258 128.607 771.485 110.292 780.477C92.0447 789.468 73.5953 836.225 55.2133 850.612C36.8313 864.998 18.382 847.015 9.22467 838.023L0 829.032V1080.8Z" fill="#D4376F"/>
<path d="M0 1113H9.22467C18.382 1113 36.8313 1113 55.2133 1113C73.5953 1113 92.0447 1113 110.292 1113C128.607 1113 146.787 1113 165.101 1113C183.349 1113 201.798 1113 220.18 1113C238.562 1113 257.011 1113 275.393 1113C293.775 1113 312.225 1113 330.607 1113C348.989 1113 367.438 1113 385.82 1113C404.202 1113 422.651 1113 440.899 1113C459.213 1113 477.393 1113 495.708 1113C513.955 1113 532.405 1113 550.787 1113C569.169 1113 587.618 1113 596.775 1113H606V968.559L596.775 953.083C587.618 937.607 569.169 906.655 550.787 901.497C532.405 896.338 513.955 916.972 495.708 930.385C477.393 943.797 459.213 949.988 440.899 952.051C422.651 954.115 404.202 952.051 385.82 953.083C367.438 954.115 348.989 958.241 330.607 948.956C312.225 939.67 293.775 916.972 275.393 903.56C257.011 890.148 238.562 886.021 220.18 898.401C201.798 910.782 183.349 939.67 165.101 945.861C146.787 952.051 128.607 935.543 110.292 940.702C92.0447 945.861 73.5953 972.686 55.2133 980.939C36.8313 989.193 18.382 978.876 9.22467 973.717L0 968.559V1113Z" fill="#EC5268"/>
</g>
<defs>
<clipPath id="clip0_425_4">
<rect width="606" height="1079" fill="white"/>
</clipPath>
</defs>
</svg>
