<svg width="606" height="1165" viewBox="0 0 606 1165" fill="none" xmlns="http://www.w3.org/2000/svg">
<g clip-path="url(#clip0_10_236)">
<path d="M0 176.692L9.22467 188.342C18.382 199.992 36.8313 223.292 55.2133 221.35C73.5953 219.408 92.0447 192.225 110.292 174.75C128.607 157.275 146.787 149.508 165.101 166.983C183.349 184.458 201.798 227.175 220.18 234.942C238.562 242.708 257.011 215.525 275.393 223.292C293.775 231.058 312.225 273.775 330.607 281.542C348.989 289.308 367.438 262.125 385.82 244.65C404.202 227.175 422.651 219.408 440.899 225.233C459.213 231.058 477.393 250.475 495.708 246.592C513.955 242.708 532.405 215.525 550.787 188.342C569.169 161.158 587.618 133.975 596.775 120.383L606 106.792V0H596.775C587.618 0 569.169 0 550.787 0C532.405 0 513.955 0 495.708 0C477.393 0 459.213 0 440.899 0C422.651 0 404.202 0 385.82 0C367.438 0 348.989 0 330.607 0C312.225 0 293.775 0 275.393 0C257.011 0 238.562 0 220.18 0C201.798 0 183.349 0 165.101 0C146.787 0 128.607 0 110.292 0C92.0447 0 73.5953 0 55.2133 0C36.8313 0 18.382 0 9.22467 0H0V176.692Z" fill="#BB0037"/>
<path d="M0 619.392L9.22467 640.75C18.382 662.108 36.8313 704.825 55.2133 683.467C73.5953 662.108 92.0447 576.675 110.292 547.55C128.607 518.425 146.787 545.608 165.101 555.317C183.349 565.025 201.798 557.258 220.18 533.958C238.562 510.658 257.011 471.825 275.393 485.417C293.775 499.008 312.225 565.025 330.607 574.733C348.989 584.442 367.438 537.842 385.82 516.483C404.202 495.125 422.651 499.008 440.899 502.892C459.213 506.775 477.393 510.658 495.708 487.358C513.955 464.058 532.405 413.575 550.787 421.342C569.169 429.108 587.618 495.125 596.775 528.133L606 561.142V102.908L596.775 116.5C587.618 130.092 569.169 157.275 550.787 184.458C532.405 211.642 513.955 238.825 495.708 242.708C477.393 246.592 459.213 227.175 440.899 221.35C422.651 215.525 404.202 223.292 385.82 240.767C367.438 258.242 348.989 285.425 330.607 277.658C312.225 269.892 293.775 227.175 275.393 219.408C257.011 211.642 238.562 238.825 220.18 231.058C201.798 223.292 183.349 180.575 165.101 163.1C146.787 145.625 128.607 153.392 110.292 170.867C92.0447 188.342 73.5953 215.525 55.2133 217.467C36.8313 219.408 18.382 196.108 9.22467 184.458L0 172.808V619.392Z" fill="#DD003F"/>
<path d="M0 747.542L9.22467 768.9C18.382 790.258 36.8313 832.975 55.2133 823.267C73.5953 813.558 92.0447 751.425 110.292 714.533C128.607 677.642 146.787 665.992 165.101 654.342C183.349 642.692 201.798 631.042 220.18 615.508C238.562 599.975 257.011 580.558 275.393 603.858C293.775 627.158 312.225 693.175 330.607 704.825C348.989 716.475 367.438 673.758 385.82 658.225C404.202 642.692 422.651 654.342 440.899 660.167C459.213 665.992 477.393 665.992 495.708 638.808C513.955 611.625 532.405 557.258 550.787 555.317C569.169 553.375 587.618 603.858 596.775 629.1L606 654.342V557.258L596.775 524.25C587.618 491.242 569.169 425.225 550.787 417.458C532.405 409.692 513.955 460.175 495.708 483.475C477.393 506.775 459.213 502.892 440.899 499.008C422.651 495.125 404.202 491.242 385.82 512.6C367.438 533.958 348.989 580.558 330.607 570.85C312.225 561.142 293.775 495.125 275.393 481.533C257.011 467.942 238.562 506.775 220.18 530.075C201.798 553.375 183.349 561.142 165.101 551.433C146.787 541.725 128.607 514.542 110.292 543.667C92.0447 572.792 73.5953 658.225 55.2133 679.583C36.8313 700.942 18.382 658.225 9.22467 636.867L0 615.508V747.542Z" fill="#FF0046"/>
<path d="M0 898.992L9.22467 908.7C18.382 918.408 36.8313 937.825 55.2133 922.292C73.5953 906.758 92.0447 856.275 110.292 846.567C128.607 836.858 146.787 867.925 165.101 856.275C183.349 844.625 201.798 790.258 220.18 766.958C238.562 743.658 257.011 751.425 275.393 776.667C293.775 801.908 312.225 844.625 330.607 862.1C348.989 879.575 367.438 871.808 385.82 869.867C404.202 867.925 422.651 871.808 440.899 867.925C459.213 864.042 477.393 852.392 495.708 827.15C513.955 801.908 532.405 763.075 550.787 772.783C569.169 782.492 587.618 840.742 596.775 869.867L606 898.992V650.458L596.775 625.217C587.618 599.975 569.169 549.492 550.787 551.433C532.405 553.375 513.955 607.742 495.708 634.925C477.393 662.108 459.213 662.108 440.899 656.283C422.651 650.458 404.202 638.808 385.82 654.342C367.438 669.875 348.989 712.592 330.607 700.942C312.225 689.292 293.775 623.275 275.393 599.975C257.011 576.675 238.562 596.092 220.18 611.625C201.798 627.158 183.349 638.808 165.101 650.458C146.787 662.108 128.607 673.758 110.292 710.65C92.0447 747.542 73.5953 809.675 55.2133 819.383C36.8313 829.092 18.382 786.375 9.22467 765.017L0 743.658V898.992Z" fill="#FF4C68"/>
<path d="M0 1166.94H9.22467C18.382 1166.94 36.8313 1166.94 55.2133 1166.94C73.5953 1166.94 92.0447 1166.94 110.292 1166.94C128.607 1166.94 146.787 1166.94 165.101 1166.94C183.349 1166.94 201.798 1166.94 220.18 1166.94C238.562 1166.94 257.011 1166.94 275.393 1166.94C293.775 1166.94 312.225 1166.94 330.607 1166.94C348.989 1166.94 367.438 1166.94 385.82 1166.94C404.202 1166.94 422.651 1166.94 440.899 1166.94C459.213 1166.94 477.393 1166.94 495.708 1166.94C513.955 1166.94 532.405 1166.94 550.787 1166.94C569.169 1166.94 587.618 1166.94 596.775 1166.94H606V895.108L596.775 865.983C587.618 836.858 569.169 778.608 550.787 768.9C532.405 759.192 513.955 798.025 495.708 823.267C477.393 848.508 459.213 860.158 440.899 864.042C422.651 867.925 404.202 864.042 385.82 865.983C367.438 867.925 348.989 875.692 330.607 858.217C312.225 840.742 293.775 798.025 275.393 772.783C257.011 747.542 238.562 739.775 220.18 763.075C201.798 786.375 183.349 840.742 165.101 852.392C146.787 864.042 128.607 832.975 110.292 842.683C92.0447 852.392 73.5953 902.875 55.2133 918.408C36.8313 933.942 18.382 914.525 9.22467 904.817L0 895.108V1166.94Z" fill="#FF7187"/>
</g>
<defs>
<clipPath id="clip0_10_236">
<rect width="606" height="1165" fill="white"/>
</clipPath>
</defs>
</svg>
