<svg id="visual" viewBox="0 0 900 600" width="900" height="600" xmlns="http://www.w3.org/2000/svg" xmlns:xlink="http://www.w3.org/1999/xlink" version="1.1"><path d="M0 215L30 227.5C60 240 120 265 180 265.5C240 266 300 242 360 240.5C420 239 480 260 540 270.7C600 281.3 660 281.7 720 270C780 258.3 840 234.7 870 222.8L900 211L900 0L870 0C840 0 780 0 720 0C660 0 600 0 540 0C480 0 420 0 360 0C300 0 240 0 180 0C120 0 60 0 30 0L0 0Z" fill="#ff6f61"></path><path d="M0 184L30 179.5C60 175 120 166 180 175.8C240 185.7 300 214.3 360 228.3C420 242.3 480 241.7 540 227.8C600 214 660 187 720 185.5C780 184 840 208 870 220L900 232L900 0L870 0C840 0 780 0 720 0C660 0 600 0 540 0C480 0 420 0 360 0C300 0 240 0 180 0C120 0 60 0 30 0L0 0Z" fill="#ff625b"></path><path d="M0 126L30 131.8C60 137.7 120 149.3 180 158.2C240 167 300 173 360 174.2C420 175.3 480 171.7 540 162.5C600 153.3 660 138.7 720 131.3C780 124 840 124 870 124L900 124L900 0L870 0C840 0 780 0 720 0C660 0 600 0 540 0C480 0 420 0 360 0C300 0 240 0 180 0C120 0 60 0 30 0L0 0Z" fill="#ff5455"></path><path d="M0 119L30 120.2C60 121.3 120 123.7 180 121.3C240 119 300 112 360 107.3C420 102.7 480 100.3 540 109.5C600 118.7 660 139.3 720 147.7C780 156 840 152 870 150L900 148L900 0L870 0C840 0 780 0 720 0C660 0 600 0 540 0C480 0 420 0 360 0C300 0 240 0 180 0C120 0 60 0 30 0L0 0Z" fill="#ff434f"></path><path d="M0 62L30 67.5C60 73 120 84 180 91C240 98 300 101 360 94.3C420 87.7 480 71.3 540 70.2C600 69 660 83 720 91.3C780 99.7 840 102.3 870 103.7L900 105L900 0L870 0C840 0 780 0 720 0C660 0 600 0 540 0C480 0 420 0 360 0C300 0 240 0 180 0C120 0 60 0 30 0L0 0Z" fill="#ff2e4a"></path><path d="M0 70L30 64C60 58 120 46 180 46.5C240 47 300 60 360 59.5C420 59 480 45 540 39.2C600 33.3 660 35.7 720 39.5C780 43.3 840 48.7 870 51.3L900 54L900 0L870 0C840 0 780 0 720 0C660 0 600 0 540 0C480 0 420 0 360 0C300 0 240 0 180 0C120 0 60 0 30 0L0 0Z" fill="#ff0046"></path></svg>