<svg width="606" height="420" viewBox="0 0 606 420" fill="none" xmlns="http://www.w3.org/2000/svg">
<g clip-path="url(#clip0_233_230)">
<path d="M0 92.8341H43.0933V86.5425L64 66.9685L106 86.5425L129.953 87.2416L160.5 109.168L173.047 118.001H216.14V66.9685H259.907V138.274H303V179.519H346.093V126.39H389.86V51.5889H432.953V64.1722H476.047L497.5 51.5889L519.14 66.9685V103.32H562.907V65.5703H606V103.32V420.699H562.907H519.14H476.047H432.953H389.86H346.093H303H259.907H216.14H173.047H129.953H86.86H43.0933H0V92.8341Z" fill="#FF6F61"/>
<path d="M0 210.278H43.0933L64 115.904L86.86 171.829V168.334H129.953V96.9813L151.5 86.5425L173.047 96.9813V148.76H216.14V154.353H259.907V198.394H303V115.204L322.5 56.9225L346.093 115.904H389.86V195.598H432.953L457 67.0785L476.047 131.283H519.14V173.227H562.907V138.973H606V224.26V420.699H562.907H519.14H476.047H432.953H389.86H346.093H303H259.907H216.14H173.047H129.953H86.86H43.0933H0V210.278Z" fill="#EC5268"/>
<path d="M0 183.714H43.0933V252.223H86.86V263.408H129.953V139.672H173.047V148.76H216.14V168.334H259.907V165.538H303V145.265H346.093V180.917H389.86V207.482H432.953V246.63H476.047V219.366H519.14L539.5 136.876L562.907 174.626H606V136.876V420.699H562.907H519.14H476.047H432.953H389.86H346.093H303H259.907H216.14H173.047H129.953H86.86H43.0933H0V183.714Z" fill="#D4376F"/>
<path d="M0 291.371H43.0933V202.588H86.86V276.69H129.953V287.875H173.047V273.195H216.14L239 187.37L259.907 245.931H303V248.028H346.093V223.561H389.86V252.223H432.953V278.787H476.047V285.778H519.14V257.815H562.907V297.662H606V228.454V420.699H562.907H519.14H476.047H432.953H389.86H346.093H303H259.907H216.14H173.047H129.953H86.86H43.0933H0V291.371Z" fill="#B62176"/>
<path d="M4 237.419H47.0933V281.46H90.86V288.451H133.953V326.201H177.047L197.5 221.392L220.14 323.405H263.907V309.423H307V319.21H350.093L370.5 177.722L393.86 331.793H436.953V274.469H480.047L495.5 263.284L490 238C490 238 496.109 230.188 493 227C489.924 223.846 482 229.5 482 229.5L471.5 225.278V220.778L482 215C482 215 489.851 221.149 493 218C496.149 214.852 490 207 490 207L495.5 196.5L502.5 196.5L508.5 207C508.5 207 501.843 214.782 505 218C508.118 221.178 516 215 516 215L528 220.778V225.278L516 229.5C516 229.5 508.045 223.817 505 227C501.884 230.257 508.5 238 508.5 238L502.5 263.284L523.14 294.743H566.907V263.284H610V281.46V422.673H566.907H523.14H480.047H436.953H393.86H350.093H307H263.907H220.14H177.047H133.953H90.86H47.0933H4V237.419Z" fill="#93147A"/>
<path d="M0 332.616H43.0933V347.296H86.86L78.5 285.778L110 176.256L137.5 285.778L129.953 366.171H173.047V345.898H216.14L232.5 303.255L259.907 350.792H303L320 258.519L346.093 356.384H389.86V363.375H432.953V336.111H476.047V366.171H519.14V340.306H562.907L606 258.519V285.778V340.306V420.699H562.907H519.14H476.047H432.953H389.86H346.093H303H259.907H216.14H173.047H129.953H86.86H43.0933H0V332.616Z" fill="#5E1070"/>
<path d="M0 357.783L21 312.854L43.0933 343.801H86.86V344.5L129.953 343.801L164.5 206.666L199 345.199V379.454V401.824L225.5 379.454L259.907 401.824C259.907 401.824 287.842 381.695 288 366.681C288.161 351.303 259.907 330.519 259.907 330.519L303 154.871L346.093 330.519C346.093 330.519 317.568 351.535 317 366.681C316.215 387.613 354.5 415.372 354.5 415.372L371.5 401.824H389.86L418 286.448L438 342.249L440 379.454L454 401.824L471 379.454V342.249L497 286.448L519.14 401.824H540.5L560 415.372C560 415.372 577.865 398.81 578.5 384.904C579.134 371.02 562.907 352.913 562.907 352.913L583 266.587L603 352.913C603 352.913 588.836 371.36 589.5 384.904C590.163 398.419 606 415.372 606 415.372V420.699H562.907H519.14H476.047H432.953H389.86H368H346.093H303H259.907H216.14H173.047H129.953H86.86H43.0933H0V357.783Z" fill="#210C4F"/>
<path d="M66.1319 217.748C57.103 241.116 46.4325 229.055 41.0972 243C36.5828 229.809 16.473 236.593 16.473 217.748C4.16085 207.195 27.4976 227.17 41.0972 227.17C54.6968 227.17 82.1376 203.049 66.1319 217.748Z" fill="#210C4F"/>
<path d="M43.5518 221.758C44.1587 222.253 44.5921 222.903 44.7973 223.624C45.0025 224.345 43.8175 225.38 43.5518 226.084C43.2861 226.788 43.1152 227.378 42.4681 227.829C41.8211 228.279 41.6368 228.122 40.8265 228.166C40.0162 228.21 40.2957 228.345 39.5953 227.969C38.8949 227.592 38.3081 226.755 37.9537 226.084C37.5993 225.413 36.65 224.8 36.761 224.061C36.872 223.323 37.2189 222.631 37.758 222.074L40.8265 224.397L43.5518 221.758Z" fill="#210C4F"/>
<path d="M472.603 204.583C465.873 212.372 457.919 208.352 453.943 213C450.578 208.603 435.589 210.864 435.589 204.583C426.412 201.065 443.806 207.723 453.943 207.723C464.079 207.723 484.533 199.683 472.603 204.583Z" fill="#210C4F"/>
<path d="M455.772 205.92C456.225 206.085 456.548 206.301 456.701 206.541C456.854 206.782 455.97 207.127 455.772 207.361C455.574 207.596 455.447 207.793 454.965 207.943C454.482 208.093 454.345 208.041 453.741 208.055C453.137 208.07 453.345 208.115 452.823 207.99C452.301 207.864 451.864 207.585 451.6 207.361C451.335 207.138 450.628 206.933 450.711 206.687C450.793 206.441 451.052 206.21 451.454 206.025L453.741 206.799L455.772 205.92Z" fill="#210C4F"/>
<path d="M472.603 204.583C465.873 212.372 457.919 208.352 453.943 213C450.578 208.603 435.589 210.864 435.589 204.583C426.412 201.065 443.806 207.723 453.943 207.723C464.079 207.723 484.533 199.683 472.603 204.583Z" fill="#210C4F"/>
<path d="M455.772 205.92C456.225 206.085 456.548 206.301 456.701 206.541C456.854 206.782 455.97 207.127 455.772 207.361C455.574 207.596 455.447 207.793 454.965 207.943C454.482 208.093 454.345 208.041 453.741 208.055C453.137 208.07 453.345 208.115 452.823 207.99C452.301 207.864 451.864 207.585 451.6 207.361C451.335 207.138 450.628 206.933 450.711 206.687C450.793 206.441 451.052 206.21 451.454 206.025L453.741 206.799L455.772 205.92Z" fill="#210C4F"/>
<path d="M346.25 210.913C345.036 214.87 343.296 214.171 341.364 217C339.73 214.324 335.563 210.913 337.506 207.261C337.992 205.435 336.44 213.788 341.364 213.788C346.289 213.788 348.193 201.783 346.25 210.913Z" fill="#210C4F"/>
<path d="M342.253 212.69C342.473 212.791 342.63 212.922 342.704 213.069C342.778 213.215 342.349 213.425 342.253 213.568C342.157 213.711 342.095 213.83 341.861 213.922C341.626 214.013 341.56 213.981 341.266 213.99C340.973 213.999 341.074 214.027 340.821 213.95C340.567 213.874 340.354 213.704 340.226 213.568C340.098 213.432 339.754 213.307 339.794 213.157C339.834 213.008 339.96 212.867 340.155 212.754L341.266 213.225L342.253 212.69Z" fill="#210C4F"/>
</g>
<defs>
<clipPath id="clip0_233_230">
<rect width="606" height="419.443" fill="white" transform="translate(0 0.55658)"/>
</clipPath>
</defs>
</svg>
