<svg width="452" height="316" viewBox="0 0 452 316" fill="none" xmlns="http://www.w3.org/2000/svg">
<path d="M410.316 180.12C417.805 180.12 423.876 173.753 423.876 165.9C423.876 158.047 410.316 136.336 410.316 132.227C408.187 133.348 396.756 158.047 396.756 165.9C396.756 173.753 402.827 180.12 410.316 180.12Z" fill="#FF0046"/>
<path d="M142.52 33.52C145.016 33.52 147.04 31.3978 147.04 28.78C147.04 26.1622 143.389 14.5 142.52 13C141.389 14 138 26.1622 138 28.78C138 31.3978 140.024 33.52 142.52 33.52Z" fill="#FF0046"/>
<path d="M399.267 241.213C402.318 241.213 404.791 238.62 404.791 235.42C404.791 232.22 399.267 226 399.267 224C398 225.5 393.742 232.22 393.742 235.42C393.742 238.62 396.216 241.213 399.267 241.213Z" fill="#FF0046"/>
<path d="M236.547 202.24C239.598 202.24 242.071 199.646 242.071 196.447C242.071 193.247 237.683 184.52 236.547 180.785C235.128 183.4 231.022 193.247 231.022 196.447C231.022 199.646 233.496 202.24 236.547 202.24Z" fill="#FF0046"/>
<path d="M73.3244 71.1C78.8718 71.1 83.3689 66.3841 83.3689 60.5667C83.3689 54.7493 77 38 73.3244 33.5C69.5 37.5 63.28 54.7493 63.28 60.5667C63.28 66.3841 67.777 71.1 73.3244 71.1Z" fill="#FF0046"/>
<path d="M46.7066 109.02C49.203 109.02 51.2266 106.898 51.2266 104.28C51.2266 101.662 48.4818 94.5012 46.7066 92.6336C45.4983 93.7541 42.1866 101.662 42.1866 104.28C42.1866 106.898 44.2103 109.02 46.7066 109.02Z" fill="#FF0046"/>
<path d="M181.302 191.707C187.404 191.707 192.351 186.519 192.351 180.12C192.351 173.721 183.283 157.253 181.302 152.771C179.632 156.506 170.253 173.721 170.253 180.12C170.253 186.519 175.2 191.707 181.302 191.707Z" fill="#FF0046"/>
<path d="M16.5733 182.227C23.5076 182.227 29.1289 176.332 29.1289 169.06C29.1289 161.788 21.1761 140.818 16.5733 136.709C13.1438 140.444 4.01776 161.788 4.01776 169.06C4.01776 176.332 9.63908 182.227 16.5733 182.227Z" fill="#FF0046"/>
<path d="M433.418 105.86C438.133 105.86 441.956 101.851 441.956 96.9067C441.956 91.9619 435.57 77.6927 433.418 74.7045C431.919 77.6927 424.88 91.9619 424.88 96.9067C424.88 101.851 428.702 105.86 433.418 105.86Z" fill="#FF0046"/>
</svg>
