<svg width="452" height="316" viewBox="0 0 452 316" fill="none" xmlns="http://www.w3.org/2000/svg">
<path d="M410.316 180.12C417.805 180.12 423.876 173.753 423.876 165.9C423.876 158.047 410.316 136.336 410.316 132.227C408.187 133.348 396.756 158.047 396.756 165.9C396.756 173.753 402.827 180.12 410.316 180.12Z" fill="#FF0046"/>
<path d="M134.52 121.52C137.016 121.52 139.04 119.398 139.04 116.78C139.04 114.162 135.389 102.5 134.52 101C133.389 102 130 114.162 130 116.78C130 119.398 132.024 121.52 134.52 121.52Z" fill="#FF0046"/>
<path d="M352.524 229.213C355.576 229.213 358.049 226.62 358.049 223.42C358.049 220.22 352.524 214 352.524 212C351.258 213.5 347 220.22 347 223.42C347 226.62 349.473 229.213 352.524 229.213Z" fill="#FF0046"/>
<path d="M236.547 202.24C239.598 202.24 242.071 199.646 242.071 196.447C242.071 193.247 237.683 184.52 236.547 180.785C235.128 183.4 231.022 193.247 231.022 196.447C231.022 199.646 233.496 202.24 236.547 202.24Z" fill="#FF0046"/>
<path d="M252.044 115.6C257.592 115.6 262.089 110.884 262.089 105.067C262.089 99.2493 255.72 82.5 252.044 78C248.22 82 242 99.2493 242 105.067C242 110.884 246.497 115.6 252.044 115.6Z" fill="#FF0046"/>
<path d="M46.7066 109.02C49.203 109.02 51.2266 106.898 51.2266 104.28C51.2266 101.662 48.4818 94.5012 46.7066 92.6336C45.4983 93.7541 42.1866 101.662 42.1866 104.28C42.1866 106.898 44.2103 109.02 46.7066 109.02Z" fill="#FF0046"/>
<path d="M181.302 191.707C187.404 191.707 192.351 186.519 192.351 180.12C192.351 173.721 183.283 157.253 181.302 152.771C179.632 156.506 170.253 173.721 170.253 180.12C170.253 186.519 175.2 191.707 181.302 191.707Z" fill="#FF0046"/>
<path d="M16.5733 182.227C23.5076 182.227 29.1289 176.332 29.1289 169.06C29.1289 161.788 21.1761 140.818 16.5733 136.709C13.1438 140.444 4.01776 161.788 4.01776 169.06C4.01776 176.332 9.63908 182.227 16.5733 182.227Z" fill="#FF0046"/>
<path d="M349.538 122.156C354.253 122.156 358.076 118.147 358.076 113.202C358.076 108.257 351.69 93.9882 349.538 91C348.039 93.9882 341 108.257 341 113.202C341 118.147 344.822 122.156 349.538 122.156Z" fill="#FF0046"/>
</svg>
